<svg width="81" height="81" viewBox="0 0 81 81" fill="none" xmlns="http://www.w3.org/2000/svg">
<path fill-rule="evenodd" clip-rule="evenodd" d="M76.7204 23.6638L60.9743 30.7325C61.8897 32.7702 62.5017 34.9309 62.7911 37.1458L79.9042 34.9209C79.3987 31.0332 78.326 27.2405 76.7204 23.6638V23.6638Z" fill="black"/>
<path fill-rule="evenodd" clip-rule="evenodd" d="M68.3143 11.5516L56.185 23.831C57.7746 25.4004 59.1259 27.1941 60.1959 29.155L75.3497 20.8985C73.4739 17.4558 71.1035 14.3068 68.3143 11.5516V11.5516Z" fill="black"/>
<path fill-rule="evenodd" clip-rule="evenodd" d="M56.1006 3.29382L49.226 19.1256C51.2752 20.0148 53.1832 21.1992 54.8893 22.6412L66.0373 9.46818C63.0445 6.93561 59.6968 4.85538 56.1006 3.29382V3.29382Z" fill="black"/>
<path fill-rule="evenodd" clip-rule="evenodd" d="M41.7286 0.00567627L41.0372 17.2518C43.2693 17.3407 45.4763 17.7559 47.588 18.4842L53.2247 2.17365C49.5192 0.893169 45.646 0.16275 41.7286 0.00567627V0.00567627Z" fill="black"/>
<path fill-rule="evenodd" clip-rule="evenodd" d="M27.1393 2.1312L32.7245 18.4625C34.8379 17.7391 37.0459 17.3291 39.2781 17.2454L38.6423 0C34.7244 0.144547 30.8489 0.862574 27.1393 2.1312V2.1312Z" fill="black"/>
<path fill-rule="evenodd" clip-rule="evenodd" d="M14.303 9.38333L25.4104 22.5943C27.1198 21.1564 29.0306 19.9764 31.0818 19.0919L24.2593 3.24078C20.6583 4.79083 17.3038 6.86034 14.303 9.38333V9.38333Z" fill="black"/>
<path fill-rule="evenodd" clip-rule="evenodd" d="M4.95312 20.7827L20.0828 29.0893C21.1573 27.1309 22.5128 25.3404 24.1061 23.7747L12.0182 11.4584C9.22026 14.2046 6.83994 17.3461 4.95312 20.7827V20.7827Z" fill="black"/>
<path fill-rule="evenodd" clip-rule="evenodd" d="M0.352417 34.7899L17.4611 37.0702C17.7556 34.8559 18.3728 32.6966 19.2929 30.6611L3.57227 23.543C1.95523 27.1145 0.870396 30.9037 0.352417 34.7899V34.7899Z" fill="black"/>
<path fill-rule="evenodd" clip-rule="evenodd" d="M1.12226 49.5131L17.8994 45.4592C17.3742 43.288 17.1696 41.0516 17.2923 38.8212L0.0618961 37.8625C-0.155795 41.777 0.201453 45.7023 1.12226 49.5131Z" fill="black"/>
<path fill-rule="evenodd" clip-rule="evenodd" d="M7.15863 62.9641L21.3385 53.1234C20.0645 51.2886 19.0658 49.2771 18.3745 47.153L1.9613 52.4832C3.17235 56.212 4.92339 59.7432 7.15863 62.9641V62.9641Z" fill="black"/>
<path fill-rule="evenodd" clip-rule="evenodd" d="M17.6464 73.3261L27.314 59.0278C25.4631 57.777 23.8053 56.2621 22.3934 54.5311L9.01398 65.4305C11.4902 68.47 14.3986 71.1302 17.6464 73.3261V73.3261Z" fill="black"/>
<path fill-rule="evenodd" clip-rule="evenodd" d="M31.1691 79.2001L35.0188 62.3749C32.8411 61.8773 30.748 61.0635 28.8062 59.9594L20.2674 74.9559C23.6744 76.8957 27.3473 78.3256 31.1691 79.2001V79.2001Z" fill="black"/>
<path fill-rule="evenodd" clip-rule="evenodd" d="M45.9005 79.7925L43.4124 62.7128C41.202 63.0355 38.9564 63.0328 36.7468 62.7048L34.2018 79.7732C38.0794 80.3513 42.0209 80.3578 45.9005 79.7927V79.7925Z" fill="black"/>
<path fill-rule="evenodd" clip-rule="evenodd" d="M59.8512 75.0234L51.3614 59.9958C49.4168 61.0951 47.3217 61.9038 45.1429 62.3962L48.9355 79.2314C52.7601 78.3696 56.4378 76.952 59.8513 75.0236L59.8512 75.0234Z" fill="black"/>
<path fill-rule="evenodd" clip-rule="evenodd" d="M71.1371 65.5369L57.7921 54.5908C56.376 56.3184 54.7145 57.8293 52.8606 59.0755L62.4785 73.4038C65.7336 71.2187 68.6508 68.5683 71.1372 65.537L71.1371 65.5369Z" fill="black"/>
<path fill-rule="evenodd" clip-rule="evenodd" d="M78.2341 52.6141L61.8361 47.2278C61.1396 49.3503 60.1362 51.3593 58.8577 53.1911L73.002 63.0776C75.248 59.8642 77.0108 56.3389 78.2343 52.6142L78.2341 52.6141Z" fill="black"/>
<path fill-rule="evenodd" clip-rule="evenodd" d="M80.1837 38.0002L62.9473 38.9012C63.0646 41.1319 62.8546 43.3678 62.3241 45.5377L79.0847 49.6472C80.0182 45.8395 80.3885 41.9154 80.1839 38.0003L80.1837 38.0002Z" fill="black"/>
</svg>
